<svg width="18" height="16" viewBox="0 0 18 16" fill="none" xmlns="http://www.w3.org/2000/svg">
<path d="M15.875 4.62511H13.1344C13.1648 4.59933 13.1961 4.57433 13.2258 4.54699C13.4631 4.33619 13.6543 4.0787 13.7875 3.79062C13.9207 3.50255 13.9931 3.19008 14 2.87277C14.0103 2.52564 13.9495 2.18008 13.8213 1.85729C13.6932 1.53451 13.5005 1.24131 13.255 0.995712C13.0094 0.75011 12.7163 0.557283 12.3936 0.429068C12.0708 0.300852 11.7253 0.239955 11.3781 0.250114C11.0607 0.256952 10.7481 0.329243 10.4598 0.462463C10.1716 0.595684 9.91401 0.786965 9.70312 1.02433C9.41131 1.36253 9.17408 1.74421 9 2.15558C8.82592 1.74421 8.58869 1.36253 8.29688 1.02433C8.08599 0.786965 7.82837 0.595684 7.54015 0.462463C7.25193 0.329243 6.93932 0.256952 6.62187 0.250114C6.27474 0.239955 5.9292 0.300852 5.60645 0.429068C5.2837 0.557283 4.99057 0.75011 4.74504 0.995712C4.49951 1.24131 4.30677 1.53451 4.17865 1.85729C4.05053 2.18008 3.98974 2.52564 4 2.87277C4.00694 3.19008 4.07929 3.50255 4.2125 3.79062C4.34572 4.0787 4.53695 4.33619 4.77422 4.54699C4.80391 4.57277 4.83516 4.59777 4.86563 4.62511H2.125C1.79348 4.62511 1.47554 4.75681 1.24112 4.99123C1.0067 5.22565 0.875 5.54359 0.875 5.87511V8.37511C0.875 8.70663 1.0067 9.02458 1.24112 9.259C1.47554 9.49342 1.79348 9.62511 2.125 9.62511V14.6251C2.125 14.9566 2.2567 15.2746 2.49112 15.509C2.72554 15.7434 3.04348 15.8751 3.375 15.8751H14.625C14.9565 15.8751 15.2745 15.7434 15.5089 15.509C15.7433 15.2746 15.875 14.9566 15.875 14.6251V9.62511C16.2065 9.62511 16.5245 9.49342 16.7589 9.259C16.9933 9.02458 17.125 8.70663 17.125 8.37511V5.87511C17.125 5.54359 16.9933 5.22565 16.7589 4.99123C16.5245 4.75681 16.2065 4.62511 15.875 4.62511ZM10.6406 1.85246C10.7396 1.74318 10.8601 1.65554 10.9945 1.59504C11.129 1.53454 11.2745 1.50249 11.4219 1.5009H11.4602C11.6329 1.50198 11.8038 1.53753 11.9626 1.60548C12.1215 1.67343 12.2652 1.77241 12.3854 1.89661C12.5055 2.02081 12.5996 2.16774 12.6622 2.32879C12.7248 2.48984 12.7547 2.66176 12.75 2.83449C12.7484 2.98191 12.7164 3.12741 12.6559 3.26185C12.5954 3.3963 12.5077 3.51678 12.3984 3.61574C11.657 4.27199 10.4266 4.50324 9.66406 4.58449C9.75781 3.75715 10.0156 2.5548 10.6406 1.85246ZM5.63359 1.88058C5.87574 1.63847 6.20367 1.50173 6.54609 1.50011H6.58438C6.7318 1.5017 6.87729 1.53376 7.01174 1.59425C7.14618 1.65475 7.26667 1.7424 7.36563 1.85168C8.02109 2.5923 8.25234 3.82043 8.33359 4.5798C7.57422 4.50168 6.34609 4.2673 5.60547 3.61183C5.49619 3.51287 5.40855 3.39239 5.34805 3.25795C5.28755 3.1235 5.2555 2.978 5.25391 2.83058C5.24906 2.65498 5.27994 2.48023 5.34467 2.31693C5.4094 2.15363 5.50663 2.00517 5.63047 1.88058H5.63359ZM2.125 5.87511H8.375V8.37511H2.125V5.87511ZM3.375 9.62511H8.375V14.6251H3.375V9.62511ZM14.625 14.6251H9.625V9.62511H14.625V14.6251ZM15.875 8.37511H9.625V5.87511H15.875V8.37511Z" fill="white"/>
</svg>
