<svg width="18" height="18" viewBox="0 0 18 18" fill="none" xmlns="http://www.w3.org/2000/svg">
<path d="M8.9993 5.25321C8.25762 5.25321 7.5326 5.47314 6.91591 5.8852C6.29923 6.29725 5.81858 6.88292 5.53476 7.56815C5.25093 8.25337 5.17666 9.00737 5.32136 9.7348C5.46605 10.4622 5.82321 11.1304 6.34765 11.6549C6.8721 12.1793 7.54029 12.5365 8.26771 12.6812C8.99514 12.8258 9.74914 12.7516 10.4344 12.4678C11.1196 12.1839 11.7053 11.7033 12.1173 11.0866C12.5294 10.4699 12.7493 9.74489 12.7493 9.00321C12.7483 8.00897 12.3528 7.05574 11.6498 6.3527C10.9468 5.64966 9.99355 5.25424 8.9993 5.25321ZM8.9993 11.5032C8.50485 11.5032 8.0215 11.3566 7.61038 11.0819C7.19925 10.8072 6.87882 10.4167 6.6896 9.95992C6.50039 9.5031 6.45088 9.00044 6.54734 8.51548C6.6438 8.03053 6.88191 7.58507 7.23154 7.23544C7.58117 6.88581 8.02663 6.64771 8.51158 6.55125C8.99653 6.45478 9.4992 6.50429 9.95601 6.69351C10.4128 6.88273 10.8033 7.20316 11.078 7.61428C11.3527 8.02541 11.4993 8.50876 11.4993 9.00321C11.4993 9.66625 11.2359 10.3021 10.7671 10.771C10.2982 11.2398 9.66234 11.5032 8.9993 11.5032ZM15.8743 9.17196C15.8774 9.05946 15.8774 8.94696 15.8743 8.83446L17.0399 7.37821C17.101 7.30175 17.1434 7.212 17.1634 7.1162C17.1835 7.0204 17.1808 6.92122 17.1556 6.82665C16.9645 6.10837 16.6786 5.41872 16.3056 4.77587C16.2567 4.69174 16.1889 4.62018 16.1075 4.56687C16.0261 4.51357 15.9334 4.48 15.8368 4.46883L13.9837 4.26258C13.9066 4.18133 13.8285 4.10321 13.7493 4.02821L13.5306 2.1704C13.5193 2.07369 13.4856 1.98094 13.4322 1.89956C13.3787 1.81818 13.307 1.75041 13.2227 1.70165C12.5796 1.32926 11.8901 1.04371 11.172 0.852428C11.0773 0.82727 10.9781 0.824696 10.8823 0.844916C10.7865 0.865136 10.6968 0.907582 10.6204 0.968834L9.16805 2.12821C9.05555 2.12821 8.94305 2.12821 8.83055 2.12821L7.3743 0.964928C7.29784 0.90381 7.2081 0.861505 7.11229 0.841421C7.01649 0.821338 6.91731 0.824038 6.82274 0.849303C6.10458 1.04073 5.41497 1.32656 4.77196 1.6993C4.68783 1.74815 4.61627 1.81596 4.56297 1.89734C4.50967 1.97872 4.47609 2.07142 4.46493 2.16805L4.25868 4.0243C4.17743 4.10191 4.0993 4.18003 4.0243 4.25868L2.16649 4.47196C2.06978 4.48321 1.97704 4.5169 1.89566 4.57034C1.81427 4.62378 1.7465 4.6955 1.69774 4.77977C1.32536 5.42287 1.0398 6.11246 0.848522 6.83055C0.823363 6.92518 0.82079 7.0244 0.84101 7.1202C0.861229 7.21601 0.903676 7.30572 0.964928 7.38212L2.1243 8.83446C2.1243 8.94696 2.1243 9.05946 2.1243 9.17196L0.961022 10.6282C0.899904 10.7047 0.857598 10.7944 0.837515 10.8902C0.817432 10.986 0.820131 11.0852 0.845397 11.1798C1.03648 11.8981 1.32233 12.5877 1.6954 13.2306C1.74425 13.3147 1.81206 13.3862 1.89344 13.4395C1.97481 13.4928 2.06751 13.5264 2.16415 13.5376L4.01727 13.7438C4.09488 13.8251 4.173 13.9032 4.25165 13.9782L4.46805 15.836C4.4793 15.9327 4.51299 16.0255 4.56644 16.1069C4.61988 16.1882 4.69159 16.256 4.77587 16.3048C5.41896 16.6772 6.10855 16.9627 6.82665 17.154C6.92128 17.1791 7.02049 17.1817 7.1163 17.1615C7.2121 17.1413 7.30182 17.0988 7.37821 17.0376L8.83055 15.8782C8.94305 15.8813 9.05555 15.8813 9.16805 15.8782L10.6243 17.0438C10.7008 17.105 10.7905 17.1473 10.8863 17.1673C10.9821 17.1874 11.0813 17.1847 11.1759 17.1595C11.8941 16.9684 12.5838 16.6825 13.2266 16.3095C13.3108 16.2606 13.3823 16.1928 13.4356 16.1114C13.4889 16.03 13.5225 15.9373 13.5337 15.8407L13.7399 13.9876C13.8212 13.9105 13.8993 13.8324 13.9743 13.7532L15.8321 13.5345C15.9288 13.5232 16.0216 13.4895 16.103 13.4361C16.1843 13.3826 16.2521 13.3109 16.3009 13.2266C16.6733 12.5836 16.9588 11.894 17.1501 11.1759C17.1752 11.0812 17.1778 10.982 17.1576 10.8862C17.1374 10.7904 17.0949 10.7007 17.0337 10.6243L15.8743 9.17196ZM14.6165 8.66415C14.6298 8.88999 14.6298 9.11643 14.6165 9.34227C14.6072 9.49689 14.6556 9.64947 14.7524 9.7704L15.861 11.1556C15.7338 11.5598 15.5709 11.952 15.3743 12.3274L13.6087 12.5274C13.4549 12.5445 13.3129 12.618 13.2102 12.7337C13.0599 12.9028 12.8997 13.063 12.7306 13.2134C12.6149 13.3161 12.5414 13.458 12.5243 13.6118L12.3282 15.3759C11.9528 15.5726 11.5606 15.7355 11.1563 15.8626L9.7704 14.754C9.65949 14.6654 9.52173 14.6172 9.37977 14.6173H9.34227C9.11643 14.6306 8.88999 14.6306 8.66415 14.6173C8.50952 14.608 8.35695 14.6564 8.23602 14.7532L6.84696 15.8626C6.44269 15.7354 6.05052 15.5725 5.67508 15.3759L5.47508 13.6126C5.45802 13.4588 5.38453 13.3169 5.26883 13.2141C5.0997 13.0638 4.93953 12.9036 4.78915 12.7345C4.68644 12.6188 4.54447 12.5453 4.39071 12.5282L2.62665 12.3313C2.42992 11.9559 2.26704 11.5638 2.13993 11.1595L3.24852 9.77352C3.34532 9.65259 3.39377 9.50002 3.38446 9.3454C3.37118 9.11955 3.37118 8.89312 3.38446 8.66727C3.39377 8.51265 3.34532 8.36008 3.24852 8.23915L2.13993 6.85087C2.26714 6.44659 2.43002 6.05443 2.62665 5.67899L4.38993 5.47899C4.54369 5.46192 4.68566 5.38843 4.78837 5.27274C4.93875 5.10361 5.09892 4.94344 5.26805 4.79305C5.38421 4.69028 5.458 4.54799 5.47508 4.39383L5.67118 2.63055C6.04657 2.43383 6.43875 2.27094 6.84305 2.14383L8.22899 3.25243C8.34992 3.34923 8.50249 3.39767 8.65712 3.38837C8.88296 3.37508 9.10939 3.37508 9.33524 3.38837C9.48986 3.39767 9.64243 3.34923 9.76337 3.25243L11.1516 2.14383C11.5559 2.27104 11.9481 2.43392 12.3235 2.63055L12.5235 4.39383C12.5406 4.5476 12.6141 4.68956 12.7298 4.79227C12.8989 4.94266 13.0591 5.10283 13.2095 5.27196C13.3122 5.38765 13.4541 5.46114 13.6079 5.47821L15.372 5.6743C15.5687 6.0497 15.7316 6.44187 15.8587 6.84618L14.7501 8.23212C14.6524 8.35407 14.6039 8.50821 14.6141 8.66415H14.6165Z" fill="black"/>
</svg>
