<svg width="16" height="15" viewBox="0 0 16 15" fill="none" xmlns="http://www.w3.org/2000/svg">
<path d="M15.5 1.25V3.4375C15.5 3.60326 15.4342 3.76223 15.3169 3.87944C15.1997 3.99665 15.0408 4.0625 14.875 4.0625C14.7092 4.0625 14.5503 3.99665 14.4331 3.87944C14.3158 3.76223 14.25 3.60326 14.25 3.4375V1.25H12.0625C11.8967 1.25 11.7378 1.18415 11.6206 1.06694C11.5033 0.949731 11.4375 0.79076 11.4375 0.625C11.4375 0.45924 11.5033 0.300269 11.6206 0.183058C11.7378 0.0658482 11.8967 0 12.0625 0H14.25C14.5815 0 14.8995 0.131696 15.1339 0.366116C15.3683 0.600537 15.5 0.918479 15.5 1.25ZM14.875 10.9375C14.7092 10.9375 14.5503 11.0033 14.4331 11.1206C14.3158 11.2378 14.25 11.3967 14.25 11.5625V13.75H12.0625C11.8967 13.75 11.7378 13.8158 11.6206 13.9331C11.5033 14.0503 11.4375 14.2092 11.4375 14.375C11.4375 14.5408 11.5033 14.6997 11.6206 14.8169C11.7378 14.9342 11.8967 15 12.0625 15H14.25C14.5815 15 14.8995 14.8683 15.1339 14.6339C15.3683 14.3995 15.5 14.0815 15.5 13.75V11.5625C15.5 11.3967 15.4342 11.2378 15.3169 11.1206C15.1997 11.0033 15.0408 10.9375 14.875 10.9375ZM3.9375 13.75H1.75V11.5625C1.75 11.3967 1.68415 11.2378 1.56694 11.1206C1.44973 11.0033 1.29076 10.9375 1.125 10.9375C0.95924 10.9375 0.800269 11.0033 0.683058 11.1206C0.565848 11.2378 0.5 11.3967 0.5 11.5625V13.75C0.5 14.0815 0.631696 14.3995 0.866116 14.6339C1.10054 14.8683 1.41848 15 1.75 15H3.9375C4.10326 15 4.26223 14.9342 4.37944 14.8169C4.49665 14.6997 4.5625 14.5408 4.5625 14.375C4.5625 14.2092 4.49665 14.0503 4.37944 13.9331C4.26223 13.8158 4.10326 13.75 3.9375 13.75ZM1.125 4.0625C1.29076 4.0625 1.44973 3.99665 1.56694 3.87944C1.68415 3.76223 1.75 3.60326 1.75 3.4375V1.25H3.9375C4.10326 1.25 4.26223 1.18415 4.37944 1.06694C4.49665 0.949731 4.5625 0.79076 4.5625 0.625C4.5625 0.45924 4.49665 0.300269 4.37944 0.183058C4.26223 0.0658482 4.10326 0 3.9375 0H1.75C1.41848 0 1.10054 0.131696 0.866116 0.366116C0.631696 0.600537 0.5 0.918479 0.5 1.25V3.4375C0.5 3.60326 0.565848 3.76223 0.683058 3.87944C0.800269 3.99665 0.95924 4.0625 1.125 4.0625ZM11.75 11.25C11.6529 11.2502 11.5571 11.2278 11.4702 11.1845C11.3832 11.1413 11.3076 11.0784 11.2492 11.0008C10.8708 10.4962 10.3801 10.0867 9.81602 9.80467C9.25192 9.52262 8.6299 9.37578 7.99922 9.37578C7.36854 9.37578 6.74651 9.52262 6.18241 9.80467C5.61831 10.0867 5.12763 10.4962 4.74922 11.0008C4.64956 11.1334 4.5013 11.221 4.33706 11.2443C4.17281 11.2676 4.00605 11.2247 3.87344 11.125C3.74083 11.0253 3.65324 10.8771 3.62995 10.7128C3.60665 10.5486 3.64956 10.3818 3.74922 10.2492C4.30312 9.50757 5.04134 8.92367 5.89063 8.55547C5.42524 8.13058 5.09919 7.57492 4.95526 6.96141C4.81133 6.34789 4.85624 5.7052 5.0841 5.11767C5.31197 4.53014 5.71214 4.02523 6.23209 3.6692C6.75204 3.31317 7.36749 3.12265 7.99766 3.12265C8.62783 3.12265 9.24327 3.31317 9.76322 3.6692C10.2832 4.02523 10.6833 4.53014 10.9112 5.11767C11.1391 5.7052 11.184 6.34789 11.0401 6.96141C10.8961 7.57492 10.5701 8.13058 10.1047 8.55547C10.9545 8.92344 11.6933 9.50735 12.2477 10.2492C12.3174 10.3419 12.36 10.4522 12.3706 10.5677C12.3812 10.6832 12.3595 10.7994 12.3079 10.9033C12.2562 11.0072 12.1767 11.0946 12.0782 11.1558C11.9796 11.2171 11.866 11.2497 11.75 11.25ZM8 8.125C8.37084 8.125 8.73335 8.01503 9.04169 7.80901C9.35004 7.60298 9.59036 7.31014 9.73228 6.96753C9.87419 6.62492 9.91132 6.24792 9.83897 5.88421C9.76663 5.52049 9.58805 5.1864 9.32583 4.92418C9.0636 4.66195 8.72951 4.48338 8.3658 4.41103C8.00208 4.33868 7.62508 4.37581 7.28247 4.51773C6.93986 4.65964 6.64702 4.89996 6.441 5.20831C6.23497 5.51665 6.125 5.87916 6.125 6.25C6.125 6.74728 6.32254 7.2242 6.67418 7.57583C7.02581 7.92746 7.50272 8.125 8 8.125Z" fill="black"/>
</svg>
