<svg width="18" height="14" viewBox="0 0 18 14" fill="none" xmlns="http://www.w3.org/2000/svg">
<path d="M7.75 6.375C7.75 6.62223 7.67669 6.8639 7.53934 7.06946C7.40199 7.27502 7.20676 7.43524 6.97835 7.52985C6.74995 7.62446 6.49861 7.64921 6.25614 7.60098C6.01366 7.55275 5.79093 7.4337 5.61612 7.25888C5.4413 7.08407 5.32225 6.86134 5.27402 6.61886C5.22579 6.37639 5.25054 6.12505 5.34515 5.89665C5.43976 5.66824 5.59998 5.47301 5.80554 5.33566C6.0111 5.19831 6.25277 5.125 6.5 5.125C6.83152 5.125 7.14946 5.2567 7.38388 5.49112C7.6183 5.72554 7.75 6.04348 7.75 6.375ZM17.125 1.375V12.625C17.125 12.9565 16.9933 13.2745 16.7589 13.5089C16.5245 13.7433 16.2065 13.875 15.875 13.875H2.125C1.79348 13.875 1.47554 13.7433 1.24112 13.5089C1.0067 13.2745 0.875 12.9565 0.875 12.625V1.375C0.875 1.04348 1.0067 0.725537 1.24112 0.491116C1.47554 0.256696 1.79348 0.125 2.125 0.125H15.875C16.2065 0.125 16.5245 0.256696 16.7589 0.491116C16.9933 0.725537 17.125 1.04348 17.125 1.375ZM9.60547 9.96875C9.40322 9.2136 8.92366 8.56247 8.2625 8.14531C8.61362 7.79628 8.8532 7.35085 8.95087 6.86549C9.04854 6.38013 8.9999 5.8767 8.81112 5.41902C8.62234 4.96134 8.30192 4.57002 7.89047 4.29465C7.47903 4.01929 6.99509 3.87229 6.5 3.87229C6.00491 3.87229 5.52097 4.01929 5.10953 4.29465C4.69808 4.57002 4.37766 4.96134 4.18888 5.41902C4.0001 5.8767 3.95146 6.38013 4.04913 6.86549C4.1468 7.35085 4.38638 7.79628 4.7375 8.14531C4.07676 8.56293 3.59734 9.21387 3.39453 9.96875C3.35309 10.1293 3.37714 10.2998 3.46138 10.4426C3.54563 10.5855 3.68317 10.689 3.84375 10.7305C4.00433 10.7719 4.1748 10.7479 4.31765 10.6636C4.4605 10.5794 4.56403 10.4418 4.60547 10.2812C4.81172 9.48047 5.62578 8.875 6.5 8.875C7.37422 8.875 8.18906 9.47891 8.39453 10.2812C8.43597 10.4418 8.5395 10.5794 8.68235 10.6636C8.8252 10.7479 8.99567 10.7719 9.15625 10.7305C9.31683 10.689 9.45437 10.5855 9.53862 10.4426C9.62286 10.2998 9.64691 10.1293 9.60547 9.96875ZM14.625 8.25C14.625 8.08424 14.5592 7.92527 14.4419 7.80806C14.3247 7.69085 14.1658 7.625 14 7.625H10.875C10.7092 7.625 10.5503 7.69085 10.4331 7.80806C10.3158 7.92527 10.25 8.08424 10.25 8.25C10.25 8.41576 10.3158 8.57473 10.4331 8.69194C10.5503 8.80915 10.7092 8.875 10.875 8.875H14C14.1658 8.875 14.3247 8.80915 14.4419 8.69194C14.5592 8.57473 14.625 8.41576 14.625 8.25ZM14.625 5.75C14.625 5.58424 14.5592 5.42527 14.4419 5.30806C14.3247 5.19085 14.1658 5.125 14 5.125H10.875C10.7092 5.125 10.5503 5.19085 10.4331 5.30806C10.3158 5.42527 10.25 5.58424 10.25 5.75C10.25 5.91576 10.3158 6.07473 10.4331 6.19194C10.5503 6.30915 10.7092 6.375 10.875 6.375H14C14.1658 6.375 14.3247 6.30915 14.4419 6.19194C14.5592 6.07473 14.625 5.91576 14.625 5.75Z" fill="#202020"/>
</svg>
